<?xml version="1.0" encoding="utf-8"?>
<!-- Generator: Adobe Illustrator 26.0.1, SVG Export Plug-In . SVG Version: 6.00 Build 0)  -->
<svg version="1.1" id="Layer_1" xmlns="http://www.w3.org/2000/svg" xmlns:xlink="http://www.w3.org/1999/xlink" x="0px" y="0px"
	 viewBox="0 0 215 86" style="enable-background:new 0 0 215 86;" xml:space="preserve">
<style type="text/css">
	.st0{fill:#262626;}
	.st1{fill:url(#SVGID_1_);}
	.st2{fill:#FFFFFF;}
	.st3{stroke:#FFFFFF;stroke-width:1.0868;stroke-linejoin:round;stroke-miterlimit:10;}
</style>
<g>
	<g>
		<path class="st0" d="M114.7,13.8v9.9h-6.2v39.4H97.9V23.6h-6.2v-9.9H114.7z"/>
		<path class="st0" d="M141.5,21.1v41.2h-10.8l0.2-3.4c-0.7,1.4-1.6,2.4-2.7,3.1c-1.1,0.7-2.3,1-3.7,1c-1.6,0-2.9-0.3-4-1
			c-1.1-0.7-1.8-1.5-2.3-2.6c-0.5-1.1-0.8-2.2-0.9-3.4c-0.1-1.2-0.2-3.6-0.2-7.1V21.1h10.6v28c0,3.2,0.1,5.1,0.3,5.7
			c0.2,0.6,0.6,0.9,1.4,0.9c0.8,0,1.3-0.3,1.4-0.9c0.1-0.6,0.2-2.6,0.2-6V21.1H141.5z"/>
		<path class="st0" d="M155.8,12.4v12c0.9-1.2,2-2.1,3.1-2.7s2.4-0.9,3.7-0.9c1.5,0,2.9,0.3,4,0.8c1.1,0.5,2,1.3,2.6,2.3
			c0.6,1,1,1.9,1.1,2.9s0.2,2.9,0.2,6v18.7c0,3-0.2,5.3-0.5,6.8c-0.4,1.5-1.2,2.8-2.6,3.9s-2.9,1.6-4.8,1.6c-1.3,0-2.6-0.3-3.7-1
			c-1.1-0.6-2.2-1.6-3.1-2.9l-0.7,3.1h-10.5V12.4H155.8z M159.2,33.3c0-2.1-0.1-3.5-0.4-4.2c-0.2-0.7-0.7-1-1.4-1
			c-0.7,0-1.1,0.3-1.3,0.9s-0.3,2-0.3,4.3v17.9c0,2.2,0.1,3.7,0.3,4.3s0.7,0.9,1.4,0.9c0.7,0,1.2-0.3,1.4-1c0.2-0.6,0.3-2.2,0.3-4.7
			V33.3z"/>
		<path class="st0" d="M197.9,42.8h-13.8v8.8c0,1.8,0.1,3,0.3,3.5s0.7,0.8,1.3,0.8c0.8,0,1.4-0.4,1.6-1.1c0.3-0.7,0.4-2.1,0.4-4.1
			v-5.3h10.1v3c0,2.5-0.1,4.4-0.4,5.8s-0.9,2.8-1.9,4.3c-1,1.5-2.3,2.7-3.8,3.4c-1.5,0.8-3.5,1.1-5.8,1.1c-2.3,0-4.2-0.4-6-1.1
			s-3.1-1.8-4-3.1c-1-1.3-1.6-2.8-2-4.3c-0.4-1.6-0.6-3.9-0.6-6.9V35.8c0-3.5,0.4-6.3,1.2-8.4c0.8-2,2.2-3.6,4.1-4.7s4-1.6,6.5-1.6
			c3,0,5.5,0.7,7.4,2s3.3,3.1,4.1,5.2c0.8,2.2,1.2,5.2,1.2,9.1V42.8z M187.2,36.2v-3c0-2.1-0.1-3.4-0.3-4.1
			c-0.2-0.6-0.6-0.9-1.2-0.9c-0.7,0-1.2,0.3-1.4,0.8s-0.3,1.9-0.3,4.2v3H187.2z"/>
	</g>
	<g>
		
			<linearGradient id="SVGID_1_" gradientUnits="userSpaceOnUse" x1="39.824" y1="37.2351" x2="120.0277" y2="37.2351" gradientTransform="matrix(0 1 -1 0 115.2077 -36.9259)">
			<stop  offset="0" style="stop-color:#EC1C25"/>
			<stop  offset="1" style="stop-color:#B01825"/>
		</linearGradient>
		<path class="st1" d="M46.4,83.1c-2.5,0-4.6-2.1-4.6-4.6V7.5c0-2.5,2-4.6,4.6-4.6c0.8,0,1.5,0.2,2.2,0.6L111.8,39
			c1.4,0.8,2.3,2.3,2.3,4s-0.9,3.2-2.3,4L48.6,82.5C47.9,82.9,47.1,83.1,46.4,83.1z"/>
		<path class="st2" d="M46.4,5.8c0.3,0,0.5,0.1,0.8,0.2l31.7,17.8l31.5,17.7c1.1,0.6,1.1,2.3,0,2.9L78.8,62.2L47.2,80
			c-0.3,0.1-0.5,0.2-0.8,0.2c-0.9,0-1.7-0.7-1.7-1.7V43V7.5C44.7,6.5,45.5,5.8,46.4,5.8 M46.4,0C46.4,0,46.4,0,46.4,0
			c-4.1,0-7.5,3.4-7.5,7.5V43v35.5c0,4.1,3.3,7.5,7.5,7.5c1.3,0,2.5-0.3,3.6-1l31.7-17.8l31.5-17.7c2.3-1.3,3.8-3.8,3.8-6.5
			s-1.5-5.2-3.8-6.5L81.7,18.8L50,1C48.9,0.3,47.6,0,46.4,0L46.4,0z"/>
	</g>
	<g>
		<path class="st3" d="M35.3,21.1l5.3,41.6h-9.5l-0.5-7.5h-3.3l-0.6,7.5h-9.6l4.7-41.6H35.3z M30.3,47.9c-0.5-4.7-0.9-10.5-1.4-17.5
			c-0.9,8-1.5,13.8-1.8,17.5H30.3z"/>
		<path class="st3" d="M44.7,21.1h6.7c4.3,0,7.2,0.2,8.7,0.7s2.7,1.3,3.5,2.4c0.8,1.1,1.3,2.3,1.5,3.7s0.3,4,0.3,7.9v14.6
			c0,3.7-0.1,6.2-0.4,7.5c-0.3,1.3-0.8,2.2-1.5,3c-0.7,0.7-1.6,1.2-2.7,1.5c-1.1,0.3-2.7,0.4-4.8,0.4H44.7V21.1z M53.6,28.2v27.4
			c1.3,0,2.1-0.3,2.4-0.9c0.3-0.6,0.4-2.3,0.4-5.1V33.4c0-1.9,0-3.1-0.1-3.6c-0.1-0.5-0.3-0.9-0.7-1.2
			C55.3,28.4,54.6,28.2,53.6,28.2z"/>
		<path class="st3" d="M88.9,34h-8.7v-3c0-1.4-0.1-2.3-0.3-2.6s-0.6-0.6-1.1-0.6c-0.6,0-1,0.3-1.3,0.8C77.1,29.2,77,29.9,77,31
			c0,1.3,0.2,2.3,0.5,3c0.3,0.7,1.2,1.5,2.7,2.4c4.2,2.7,6.8,5,7.9,6.8c1.1,1.8,1.6,4.6,1.6,8.5c0,2.8-0.3,4.9-0.9,6.3
			s-1.8,2.5-3.5,3.4c-1.7,0.9-3.7,1.4-6,1.4c-2.5,0-4.7-0.5-6.4-1.6c-1.8-1.1-2.9-2.4-3.5-4c-0.6-1.6-0.8-3.9-0.8-6.9v-2.6h8.7v4.9
			c0,1.5,0.1,2.5,0.4,2.9c0.2,0.4,0.7,0.6,1.3,0.6c0.6,0,1.1-0.3,1.4-0.8c0.3-0.5,0.5-1.3,0.5-2.4c0-2.4-0.3-3.9-0.9-4.6
			c-0.6-0.7-2.1-1.9-4.4-3.6c-2.3-1.7-3.9-3-4.6-3.7c-0.8-0.8-1.4-1.8-1.9-3.2c-0.5-1.4-0.7-3.1-0.7-5.2c0-3.1,0.4-5.3,1.1-6.7
			c0.7-1.4,1.9-2.5,3.4-3.3s3.5-1.2,5.7-1.2c2.4,0,4.5,0.4,6.2,1.3c1.7,0.9,2.9,2,3.4,3.3c0.6,1.3,0.8,3.6,0.8,6.7V34z"/>
	</g>
</g>
</svg>
